<svg width="52" height="53" viewBox="0 0 52 53" fill="none" xmlns="http://www.w3.org/2000/svg">
<g id="Group 1863">
<path id="Vector" fill-rule="evenodd" clip-rule="evenodd" d="M28.2867 14.1543C29.9542 14.4719 31.5013 15.1303 32.8538 16.0543L32.8552 16.0529C33.7444 15.1606 35.1996 15.1607 36.0888 16.0529V16.053C36.9781 16.9454 36.9781 18.4056 36.0888 19.298L36.0874 19.2994C37.008 20.6566 37.6639 22.2092 37.9802 23.8825H37.9811C39.2386 23.8825 40.2676 24.9152 40.2676 26.1771C40.2676 27.4391 39.2386 28.4717 37.9811 28.4717H37.9802C37.6638 30.1451 37.0078 31.6976 36.0871 33.0546L36.0887 33.0563C36.9779 33.9486 36.9779 35.4089 36.0887 36.3013H36.0886C35.1994 37.1936 33.7442 37.1936 32.855 36.3013L32.8535 36.2997C31.501 37.2236 29.954 37.8821 28.2866 38.1996V38.2003C28.2866 39.4622 27.2577 40.4949 26 40.4949H25.9999C24.7423 40.4949 23.7133 39.4623 23.7133 38.2003V38.2001C22.0458 37.8825 20.4987 37.2241 19.1462 36.2999L19.1449 36.3013C18.2557 37.1936 16.8005 37.1936 15.9113 36.3013V36.3012C15.022 35.4088 15.0221 33.9485 15.9113 33.0562L15.9127 33.0547C14.9922 31.6975 14.3363 30.1449 14.0199 28.4716H14.019C12.7615 28.4716 11.7324 27.4391 11.7324 26.177C11.7324 24.915 12.7614 23.8823 14.019 23.8823H14.0199C14.3363 22.2091 14.9923 20.6567 15.9129 19.2995L15.9113 19.2978C15.0221 18.4054 15.0222 16.9451 15.9113 16.0528C16.8005 15.1605 18.2558 15.1605 19.145 16.0528L19.1466 16.0544C20.499 15.1305 22.046 14.4721 23.7135 14.1546V14.1539C23.7135 12.8919 24.7426 11.8594 26.0001 11.8594H26.0002C27.2577 11.8594 28.2868 12.8919 28.2868 14.1539V14.1543H28.2867Z" stroke="#D1DCF1" stroke-width="2" stroke-miterlimit="22.9256" stroke-linecap="round" stroke-linejoin="round"/>
<path id="Vector_2" d="M23.0586 31.3691H23.0595" stroke="#D1DCF1" stroke-width="2" stroke-miterlimit="22.9256" stroke-linecap="round" stroke-linejoin="round"/>
<path id="Vector_3" d="M30.5781 30.043H30.5792" stroke="#D1DCF1" stroke-width="2" stroke-miterlimit="22.9256" stroke-linecap="round" stroke-linejoin="round"/>
<path id="Vector_4" d="M32.1035 23.3125H32.1046" stroke="#D1DCF1" stroke-width="2" stroke-miterlimit="22.9256" stroke-linecap="round" stroke-linejoin="round"/>
<path id="Vector_5" d="M26 11.8606V5.67969" stroke="#D1DCF1" stroke-width="2" stroke-miterlimit="22.9256" stroke-linecap="round" stroke-linejoin="round"/>
<path id="Vector_6" d="M25.9995 5.67907C27.2623 5.67907 28.2861 4.65173 28.2861 3.38445C28.2861 2.11718 27.2623 1.08984 25.9995 1.08984C24.7366 1.08984 23.7129 2.11718 23.7129 3.38445C23.7129 4.65173 24.7366 5.67907 25.9995 5.67907Z" stroke="#D1DCF1" stroke-width="2" stroke-miterlimit="22.9256" stroke-linecap="round" stroke-linejoin="round"/>
<path id="Vector_7" d="M11.7335 26.1777H5.57422" stroke="#D1DCF1" stroke-width="2" stroke-miterlimit="22.9256" stroke-linecap="round" stroke-linejoin="round"/>
<path id="Vector_8" d="M3.28659 28.472C4.54943 28.472 5.57317 27.4447 5.57317 26.1774C5.57317 24.9101 4.54943 23.8828 3.28659 23.8828C2.02374 23.8828 1 24.9101 1 26.1774C1 27.4447 2.02374 28.472 3.28659 28.472Z" stroke="#D1DCF1" stroke-width="2" stroke-miterlimit="22.9256" stroke-linecap="round" stroke-linejoin="round"/>
<path id="Vector_9" d="M26 40.4961V46.677" stroke="#D1DCF1" stroke-width="2" stroke-miterlimit="22.9256" stroke-linecap="round" stroke-linejoin="round"/>
<path id="Vector_10" d="M26.0014 51.265C27.2643 51.265 28.288 50.2377 28.288 48.9704C28.288 47.7031 27.2643 46.6758 26.0014 46.6758C24.7386 46.6758 23.7148 47.7031 23.7148 48.9704C23.7148 50.2377 24.7386 51.265 26.0014 51.265Z" stroke="#D1DCF1" stroke-width="2" stroke-miterlimit="22.9256" stroke-linecap="round" stroke-linejoin="round"/>
<path id="Vector_11" d="M40.2676 26.1777H46.4268" stroke="#D1DCF1" stroke-width="2" stroke-miterlimit="22.9256" stroke-linecap="round" stroke-linejoin="round"/>
<path id="Vector_12" d="M48.7124 28.472C49.9752 28.472 50.999 27.4447 50.999 26.1774C50.999 24.9101 49.9752 23.8828 48.7124 23.8828C47.4495 23.8828 46.4258 24.9101 46.4258 26.1774C46.4258 27.4447 47.4495 28.472 48.7124 28.472Z" stroke="#D1DCF1" stroke-width="2" stroke-miterlimit="22.9256" stroke-linecap="round" stroke-linejoin="round"/>
<path id="Vector_13" d="M15.9104 16.0544L13.2773 13.4121" stroke="#D1DCF1" stroke-width="2" stroke-miterlimit="22.9256" stroke-linecap="round" stroke-linejoin="round"/>
<path id="Vector_14" d="M15.9115 36.3027L10.0449 42.1899" stroke="#D1DCF1" stroke-width="2" stroke-miterlimit="22.9256" stroke-linecap="round" stroke-linejoin="round"/>
<path id="Vector_15" d="M36.0898 36.3008L41.9564 42.1879" stroke="#D1DCF1" stroke-width="2" stroke-miterlimit="22.9256" stroke-linecap="round" stroke-linejoin="round"/>
<path id="Vector_16" d="M36.0898 16.0532L41.9564 10.166" stroke="#D1DCF1" stroke-width="2" stroke-miterlimit="22.9256" stroke-linecap="round" stroke-linejoin="round"/>
</g>
</svg>
