<svg width="16" height="16" viewBox="0 0 16 16" fill="none" xmlns="http://www.w3.org/2000/svg">
<g id="calendar (8) 1" clip-path="url(#clip0_549_10595)">
<path id="Vector" d="M14.1666 16.0006H1.83337C0.822021 16.0006 0 15.1786 0 14.1672V3.16724C0 2.15588 0.822021 1.33398 1.83337 1.33398H14.1666C15.178 1.33398 16 2.15588 16 3.16724V14.1672C16 15.1786 15.178 16.0006 14.1666 16.0006ZM1.83337 2.33398C1.37402 2.33398 1 2.70789 1 3.16724V14.1672C1 14.6266 1.37402 15.0006 1.83337 15.0006H14.1666C14.626 15.0006 15 14.6266 15 14.1672V3.16724C15 2.70789 14.626 2.33398 14.1666 2.33398H1.83337Z" fill="#0C285F"/>
<path id="Vector_2" d="M15.5 6.33398H0.5C0.223999 6.33398 0 6.10999 0 5.83398C0 5.55798 0.223999 5.33398 0.5 5.33398H15.5C15.776 5.33398 16 5.55798 16 5.83398C16 6.10999 15.776 6.33398 15.5 6.33398Z" fill="#0C285F"/>
<path id="Vector_3" d="M3.83203 4C3.55603 4 3.33203 3.776 3.33203 3.5V0.5C3.33203 0.223999 3.55603 0 3.83203 0C4.10803 0 4.33203 0.223999 4.33203 0.5V3.5C4.33203 3.776 4.10803 4 3.83203 4Z" fill="#0C285F"/>
<path id="Vector_4" d="M12.168 4C11.892 4 11.668 3.776 11.668 3.5V0.5C11.668 0.223999 11.892 0 12.168 0C12.444 0 12.668 0.223999 12.668 0.5V3.5C12.668 3.776 12.444 4 12.168 4Z" fill="#0C285F"/>
</g>
<defs>
<clipPath id="clip0_549_10595">
<rect width="16" height="16" fill="white"/>
</clipPath>
</defs>
</svg>
