<svg width="18" height="18" viewBox="0 0 18 18" fill="none" xmlns="http://www.w3.org/2000/svg">
<g id="cart 1" clip-path="url(#clip0_1531_143)">
<path id="Layer 2" d="M13.8487 12.6563H5.58C5.24283 12.6546 4.91739 12.5323 4.66256 12.3116C4.40773 12.0908 4.24032 11.7861 4.19062 11.4526L2.8125 2.32884C2.79894 2.22942 2.74992 2.13824 2.67447 2.07209C2.59902 2.00594 2.50222 1.96927 2.40187 1.96884H1.54687C1.39769 1.96884 1.25462 1.90957 1.14913 1.80408C1.04364 1.6986 0.984375 1.55552 0.984375 1.40634C0.984375 1.25715 1.04364 1.11408 1.14913 1.00859C1.25462 0.903101 1.39769 0.843837 1.54687 0.843837H2.39062C2.76472 0.839862 3.12758 0.971597 3.41199 1.21464C3.69641 1.45769 3.8831 1.79557 3.9375 2.16571L4.185 3.79696H15.5587C15.9168 3.78897 16.2652 3.91312 16.5375 4.14571C16.7382 4.32148 16.8845 4.5509 16.9592 4.807C17.034 5.0631 17.034 5.33522 16.9594 5.59134L15.1875 11.6438C15.1028 11.9341 14.9269 12.1893 14.6858 12.3717C14.4446 12.5541 14.1511 12.6539 13.8487 12.6563ZM4.33125 4.92196L5.30437 11.2838C5.31266 11.3524 5.34592 11.4156 5.39779 11.4612C5.44966 11.5069 5.51653 11.5318 5.58562 11.5313H13.8544C13.9152 11.5313 13.9744 11.5116 14.0231 11.4751C14.0718 11.4386 14.1073 11.3873 14.1244 11.3288L15.8794 5.28196C15.8916 5.24005 15.8939 5.19586 15.8861 5.1529C15.8783 5.10994 15.8606 5.06939 15.8344 5.03446C15.8082 4.99953 15.7742 4.97118 15.7351 4.95165C15.6961 4.93213 15.653 4.92196 15.6094 4.92196H4.33125ZM7.03125 17.1563C6.66968 17.1563 6.31623 17.0491 6.0156 16.8482C5.71496 16.6474 5.48065 16.3618 5.34228 16.0278C5.20392 15.6938 5.16771 15.3262 5.23825 14.9716C5.30879 14.6169 5.4829 14.2912 5.73857 14.0355C5.99424 13.7799 6.31998 13.6058 6.6746 13.5352C7.02922 13.4647 7.39679 13.5009 7.73084 13.6392C8.06489 13.7776 8.3504 14.0119 8.55128 14.3126C8.75215 14.6132 8.85937 14.9666 8.85937 15.3282C8.85937 15.5683 8.81209 15.806 8.72021 16.0278C8.62834 16.2496 8.49368 16.4511 8.32393 16.6209C8.15417 16.7906 7.95264 16.9253 7.73084 17.0172C7.50904 17.109 7.27132 17.1563 7.03125 17.1563ZM7.03125 14.6251C6.89218 14.6251 6.75624 14.6663 6.64061 14.7436C6.52498 14.8208 6.43486 14.9307 6.38165 15.0591C6.32843 15.1876 6.3145 15.329 6.34163 15.4654C6.36876 15.6018 6.43573 15.7271 6.53406 15.8254C6.6324 15.9237 6.75768 15.9907 6.89407 16.0178C7.03047 16.045 7.17184 16.031 7.30032 15.9778C7.4288 15.9246 7.53861 15.8345 7.61588 15.7188C7.69314 15.6032 7.73437 15.4673 7.73437 15.3282C7.73437 15.1417 7.66029 14.9629 7.52843 14.831C7.39657 14.6992 7.21773 14.6251 7.03125 14.6251ZM12.6169 17.1563C12.2553 17.1563 11.9019 17.0491 11.6012 16.8482C11.3006 16.6474 11.0663 16.3618 10.9279 16.0278C10.7895 15.6938 10.7533 15.3262 10.8239 14.9716C10.8944 14.6169 11.0685 14.2912 11.3242 14.0355C11.5799 13.7799 11.9056 13.6058 12.2602 13.5352C12.6148 13.4647 12.9824 13.5009 13.3165 13.6392C13.6505 13.7776 13.936 14.0119 14.1369 14.3126C14.3378 14.6132 14.445 14.9666 14.445 15.3282C14.445 15.8131 14.2524 16.2781 13.9096 16.6209C13.5667 16.9637 13.1017 17.1563 12.6169 17.1563ZM12.6169 14.6251C12.4778 14.6251 12.3419 14.6663 12.2262 14.7436C12.1106 14.8208 12.0205 14.9307 11.9673 15.0591C11.9141 15.1876 11.9001 15.329 11.9273 15.4654C11.9544 15.6018 12.0214 15.7271 12.1197 15.8254C12.218 15.9237 12.3433 15.9907 12.4797 16.0178C12.6161 16.045 12.7575 16.031 12.8859 15.9778C13.0144 15.9246 13.1242 15.8345 13.2015 15.7188C13.2788 15.6032 13.32 15.4673 13.32 15.3282C13.32 15.1417 13.2459 14.9629 13.1141 14.831C12.9822 14.6992 12.8034 14.6251 12.6169 14.6251Z" fill="#1D4289"/>
</g>
<defs>
<clipPath id="clip0_1531_143">
<rect width="18" height="18" fill="white"/>
</clipPath>
</defs>
</svg>
