<svg width="41" height="41" viewBox="0 0 41 41" fill="none" xmlns="http://www.w3.org/2000/svg">
<g id="delivery-bike (1) 1">
<g id="Layer_35">
<g id="Group">
<path id="Vector" d="M25.9209 20.5875L25.9209 20.5886C25.9605 24.1863 23.5928 26.3675 21.4209 26.3675C20.6877 26.3675 20.0747 26.0983 19.6144 25.5997L19.614 25.5993C19.0783 25.0253 18.8009 24.0948 18.8009 22.9475V22.2429C19.5218 21.7819 20.0009 21.0043 20.0009 20.0675C20.0009 18.6523 18.8362 17.4875 17.4209 17.4875H13.0809V11.9875C13.0809 10.2923 11.7162 8.9275 10.0209 8.9275H4.02094C3.08405 8.9275 2.36094 9.69395 2.36094 10.5875V17.2675C2.36094 18.2044 3.12738 18.9275 4.02094 18.9275H4.68094V20.2275C4.68094 21.208 5.23566 22.0438 6.06879 22.4174C5.1226 23.2381 4.56094 24.4576 4.56094 25.7875V30.2275C4.56094 31.4027 5.48571 32.3275 6.66094 32.3275H7.73069C8.01749 34.8954 10.2016 36.8475 12.8609 36.8475C15.4811 36.8475 17.7035 34.895 18.0298 32.3275H25.2209H26.6921C27.0184 34.895 29.2408 36.8475 31.8609 36.8475C34.4811 36.8475 36.7035 34.895 37.0298 32.3275H37.8209C38.1958 32.3275 38.5203 32.0034 38.5209 31.6287C38.5611 28.2166 36.1369 25.1167 33.0847 24.5056C33.2305 21.0964 32.7261 15.5766 31.7179 12.3675H32.8609C33.7562 12.3675 34.4809 11.6427 34.4809 10.7475V8.0275C34.4809 7.13227 33.7562 6.4075 32.8609 6.4075H28.9009C28.6599 6.4075 28.4463 6.43617 28.2374 6.49363C28.1667 5.14012 27.0292 4.0875 25.6609 4.0875H22.9009C22.5257 4.0875 22.2009 4.41227 22.2009 4.7875C22.2009 5.16273 22.5257 5.4875 22.9009 5.4875H25.6609C26.2877 5.4875 26.8409 6.00474 26.8409 6.6675V7.22435C26.2796 7.76156 25.9209 8.53475 25.9209 9.3875V11.6675L25.9209 20.5875ZM31.6413 25.0592L31.6413 25.0594C31.4827 27.0022 30.8496 28.4654 29.7785 29.4437C28.7072 30.422 27.1842 30.9275 25.2209 30.9275H6.62094C6.23617 30.9275 5.92094 30.6123 5.92094 30.2275V28.6275V28.625V28.6226V28.6201V28.6177V28.6152V28.6128V28.6104V28.608V28.6056V28.6033V28.6009V28.5986V28.5962V28.5939V28.5916V28.5893V28.587V28.5847V28.5824V28.5802V28.5779V28.5757V28.5734V28.5712V28.569V28.5668V28.5646V28.5624V28.5603V28.5581V28.556V28.5538V28.5517V28.5496V28.5475V28.5454V28.5433V28.5412V28.5392V28.5371V28.5351V28.533V28.531V28.529V28.527V28.525V28.523V28.521V28.519V28.5171V28.5151V28.5132V28.5113V28.5093V28.5074V28.5055V28.5036V28.5017V28.4999V28.498V28.4961V28.4943V28.4925V28.4906V28.4888V28.487V28.4852V28.4834V28.4816V28.4798V28.4781V28.4763V28.4746V28.4728V28.4711V28.4693V28.4676V28.4659V28.4642V28.4625V28.4608V28.4592V28.4575V28.4558V28.4542V28.4525V28.4509V28.4493V28.4477V28.4461V28.4444V28.4429V28.4413V28.4397V28.4381V28.4365V28.435V28.4334V28.4319V28.4304V28.4288V28.4273V28.4258V28.4243V28.4228V28.4213V28.4198V28.4183V28.4169V28.4154V28.414V28.4125V28.4111V28.4096V28.4082V28.4068V28.4054V28.404V28.4026V28.4012V28.3998V28.3984V28.397V28.3957V28.3943V28.393V28.3916V28.3903V28.3889V28.3876V28.3863V28.385V28.3837V28.3824V28.3811V28.3798V28.3785V28.3772V28.3759V28.3747V28.3734V28.3721V28.3709V28.3697V28.3684V28.3672V28.366V28.3647V28.3635V28.3623V28.3611V28.3599V28.3587V28.3575V28.3563V28.3552V28.354V28.3528V28.3516V28.3505V28.3493V28.3482V28.347V28.3459V28.3448V28.3436V28.3425V28.3414V28.3403V28.3392V28.3381V28.337V28.3359V28.3348V28.3337V28.3326V28.3315V28.3305V28.3294V28.3283V28.3273V28.3262V28.3252V28.3241V28.3231V28.322V28.321V28.32V28.3189V28.3179V28.3169V28.3159V28.3149V28.3139V28.3128V28.3118V28.3108V28.3099V28.3089V28.3079V28.3069V28.3059V28.3049V28.304V28.303V28.302V28.3011V28.3001V28.2991V28.2982V28.2972V28.2963V28.2953V28.2944V28.2934V28.2925V28.2916V28.2906V28.2897V28.2888V28.2879V28.2869V28.286V28.2851V28.2842V28.2833V28.2824V28.2815V28.2806V28.2797V28.2788V28.2779V28.277V28.2761V28.2752V28.2743V28.2734V28.2725V28.2716V28.2708V28.2699V28.269V28.2681V28.2672V28.2664V28.2655V28.2646V28.2638V28.2629V28.262V28.2612V28.2603V28.2594V28.2586V28.2577V28.2569V28.256V28.2552V28.2543V28.2535V28.2526V28.2517V28.2509V28.25V28.2492V28.2484V28.2475V28.2467V28.2458V28.245V28.2441V28.2433V28.2424V28.2416V28.2408V28.2399V28.2391V28.2382V28.2374V28.2366V28.2357V28.2349V28.234V28.2332V28.2324V28.2315V28.2307V28.2298V28.229V28.2282V28.2273V28.2265V28.2256V28.2248V28.224V28.2231V28.2223V28.2214V28.2206V28.2197V28.2189V28.2181V28.2172V28.2164V28.2155V28.2147V28.2138V28.213V28.2121V28.2113V28.2104V28.2096V28.2087V28.2079V28.207V28.2061V28.2053V28.2044V28.2036V28.2027V28.2018V28.201V28.2001V28.1992V28.1984V28.1975V28.1966V28.1957V28.1949V28.194V28.1931V28.1922V28.1913V28.1904V28.1896V28.1887V28.1878V28.1869V28.186V28.1851V28.1842V28.1833V28.1824V28.1815V28.1806V28.1796V28.1787V28.1778V28.1769V28.176V28.175V28.1741V28.1732V28.1723V28.1713V28.1704V28.1694V28.1685V28.1675V28.1666V28.1656V28.1647V28.1637V28.1628V28.1618V28.1608V28.1599V28.1589V28.1579V28.1569V28.1559V28.1549V28.154V28.153V28.152V28.151V28.1499V28.1489V28.1479V28.1469V28.1459V28.1449V28.1438V28.1428V28.1418V28.1407V28.1397V28.1386V28.1376V28.1365V28.1354V28.1344V28.1333V28.1322V28.1311V28.1301V28.129V28.1279V28.1268V28.1257V28.1246V28.1235V28.1223V28.1212V28.1201V28.119V28.1178V28.1167V28.1155V28.1144V28.1132V28.1121V28.1109V28.1097V28.1086V28.1074V28.1062V28.105V28.1038V28.1026V28.1014V28.1002V28.099V28.0977V28.0965V28.0953V28.094V28.0928V28.0915V28.0903V28.089V28.0877V28.0865V28.0852V28.0839V28.0826V28.0813V28.08V28.0787V28.0774V28.076V28.0747V28.0734V28.072V28.0707V28.0693V28.068V28.0666V28.0652V28.0638V28.0624V28.061V28.0596V28.0582V28.0568V28.0554V28.054V28.0525V28.0511V28.0496V28.0482V28.0467V28.0452V28.0438V28.0423V28.0408V28.0393V28.0378V28.0363V28.0347V28.0332V28.0317V28.0301V28.0286V28.027V28.0254V28.0239V28.0223V28.0207V28.0191V28.0175V28.0159V28.0142V28.0126V28.011V28.0093V28.0077V28.006V28.0043V28.0027V28.001V27.9993V27.9976V27.9958V27.9941V27.9924V27.9907V27.9889V27.9872V27.9854V27.9836V27.9818V27.9801V27.9783V27.9764V27.9746V27.9728V27.971V27.9691V27.9673V27.9654V27.9635V27.9635V27.9635V27.9634V27.9634V27.9633V27.9633V27.9632V27.9631V27.963V27.9628V27.9627V27.9626V27.9624V27.9623V27.9621V27.9619V27.9617V27.9615V27.9613V27.961V27.9608V27.9606V27.9603V27.96V27.9597V27.9594V27.9591V27.9588V27.9585V27.9582V27.9578V27.9575V27.9571V27.9567V27.9564V27.956V27.9556V27.9551V27.9547V27.9543V27.9538V27.9534V27.9529V27.9524V27.952V27.9515V27.951V27.9505V27.9499V27.9494V27.9489V27.9483V27.9478V27.9472V27.9466V27.946V27.9454V27.9448V27.9442V27.9436V27.943V27.9423V27.9417V27.941V27.9403V27.9397V27.939V27.9383V27.9376V27.9369V27.9362V27.9354V27.9347V27.934V27.9332V27.9324V27.9317V27.9309V27.9301V27.9293V27.9285V27.9277V27.9269V27.9261V27.9252V27.9244V27.9235V27.9227V27.9218V27.921V27.9201V27.9192V27.9183V27.9174V27.9165V27.9156V27.9147V27.9137V27.9128V27.9118V27.9109V27.9099V27.909V27.908V27.907V27.906V27.905V27.904V27.903V27.902V27.901V27.9V27.8989V27.8979V27.8968V27.8958V27.8947V27.8936V27.8926V27.8915V27.8904V27.8893V27.8882V27.8871V27.886V27.8849V27.8838V27.8826V27.8815V27.8803V27.8792V27.878V27.8769V27.8757V27.8746V27.8734V27.8722V27.871V27.8698V27.8686V27.8674V27.8662V27.865V27.8638V27.8626V27.8613V27.8601V27.8589V27.8576V27.8564V27.8551V27.8538V27.8526V27.8513V27.85V27.8488V27.8475V27.8462V27.8449V27.8436V27.8423V27.841V27.8397V27.8384V27.8371V27.8357V27.8344V27.8331V27.8317V27.8304V27.829V27.8277V27.8263V27.825V27.8236V27.8223V27.8209V27.8195V27.8182V27.8168V27.8154V27.814V27.8126V27.8112V27.8098V27.8084V27.807V27.8056V27.8042V27.8028V27.8014V27.8V27.7985V27.7971V27.7957V27.7942V27.7928V27.7914V27.7899V27.7885V27.787V27.7856V27.7841V27.7827V27.7812V27.7798V27.7783V27.7769V27.7754V27.7739V27.7724V27.771V27.7695V27.768V27.7665V27.7651V27.7636V27.7621V27.7606V27.7591V27.7576V27.7561V27.7546V27.7531V27.7516V27.7501V27.7486V27.7471V27.7456V27.7441V27.7426V27.7411V27.7396V27.7381V27.7366V27.7351V27.7335V27.732V27.7305V27.729V27.7275V27.7259V27.7244V27.7229V27.7214V27.7198V27.7183V27.7168V27.7153V27.7137V27.7122V27.7107V27.7092V27.7076V27.7061V27.7046V27.703V27.7015V27.7V27.6985V27.6969V27.6954V27.6939V27.6923V27.6908V27.6893V27.6877V27.6862V27.6847V27.6832V27.6816V27.6801V27.6786V27.677V27.6755V27.674V27.6725V27.6709V27.6694V27.6679V27.6664V27.6648V27.6633V27.6618V27.6603V27.6588V27.6573V27.6557V27.6542V27.6527V27.6512V27.6497V27.6482V27.6467V27.6452V27.6436V27.6421V27.6406V27.6391V27.6376V27.6361V27.6346V27.6332V27.6317V27.6302V27.6287V27.6272V27.6257V27.6242V27.6227V27.6213V27.6198V27.6183V27.6168V27.6154V27.6139V27.6124V27.611V27.6095V27.6081V27.6066V27.6051V27.6037V27.6022V27.6008V27.5994V27.5979V27.5965V27.5951V27.5936V27.5922V27.5908V27.5893V27.5879V27.5865V27.5851V27.5837V27.5823V27.5809V27.5795V27.5781V27.5767V27.5753V27.5739V27.5725V27.5712V27.5698V27.5684V27.5671V27.5657V27.5643V27.563V27.5616V27.5603V27.5589V27.5576V27.5563V27.5549V27.5536V27.5523V27.551V27.5497V27.5483V27.547V27.5457V27.5444V27.5432V27.5419V27.5406V27.5393V27.538V27.5368V27.5355V27.5343V27.533V27.5318V27.5305V27.5293V27.528V27.5268V27.5256V27.5244V27.5232V27.522V27.5208V27.5196V27.5184V27.5172V27.516V27.5148V27.5137V27.5125V27.5113V27.5102V27.5091V27.5079V27.5068V27.5057V27.5045V27.5034V27.5023V27.5012V27.5001V27.499V27.4979V27.4969V27.4958V27.4947V27.4937V27.4926V27.4916V27.4905V27.4895V27.4885V27.4874V27.4864V27.4854V27.4844V27.4834V27.4825V27.4815V27.4805V27.4795V27.4786V27.4776V27.4767V27.4758V27.4748V27.4739V27.473V27.4721V27.4712V27.4703V27.4694V27.4685V27.4677V27.4668V27.466V27.4651V27.4643V27.4634V27.4626V27.4618V27.461V27.4602V27.4594V27.4586V27.4579V27.4571V27.4563V27.4556V27.4549V27.4541V27.4534V27.4527V27.452V27.4513V27.4506V27.4499V27.4492V27.4486V27.4479V27.4473V27.4466V27.446V27.4454V27.4448V27.4442V27.4436V27.443V27.4424V27.4419V27.4413V27.4408V27.4402V27.4397V27.4392V27.4387V27.4382V27.4377V27.4372V27.4367V27.4363V27.4358V27.4354V27.4349V27.4345V27.4341V27.4337V27.4333V27.4329V27.4326V27.4322V27.4319V27.4315V27.4312V27.4309V27.4306V27.4303V27.43V27.4297V27.4294V27.4292V27.4289V27.4287V27.4285V27.4282V27.428V27.4279V27.4277V27.4275V25.8275C5.92094 24.0827 7.31617 22.6875 9.06094 22.6875H17.4009V22.9875C17.4009 24.4848 17.8057 25.7112 18.5866 26.5744C19.2864 27.3564 20.3139 27.8075 21.4209 27.8075C24.286 27.8075 27.3209 25.0323 27.3209 20.6275V12.3675H30.2698C30.7948 13.8976 31.2053 16.215 31.4515 18.5729C31.7011 20.9646 31.7806 23.3878 31.6413 25.0592ZM32.8609 7.8075C32.9084 7.8075 32.9643 7.83224 33.0102 7.87821C33.0562 7.92418 33.0809 7.98002 33.0809 8.0275V10.7475C33.0809 10.795 33.0562 10.8508 33.0102 10.8968C32.9643 10.9428 32.9084 10.9675 32.8609 10.9675H27.3609V9.3875C27.3609 8.52273 28.0762 7.8075 28.9409 7.8075H32.8609ZM4.02094 10.3275H9.98094C10.9242 10.3275 11.6409 11.0812 11.6409 11.9875V12.4475H3.76094V10.5875C3.76094 10.4427 3.87617 10.3275 4.02094 10.3275ZM3.76094 17.2675V13.8475H7.72094H11.6809V17.5275H5.38094H4.02094C3.87617 17.5275 3.76094 17.4123 3.76094 17.2675ZM7.14094 21.2875C6.55617 21.2875 6.08094 20.8123 6.08094 20.2275V18.9275H17.4209C18.0857 18.9275 18.6009 19.4427 18.6009 20.1075C18.6009 20.7723 18.0857 21.2875 17.4209 21.2875H9.06094H7.14094ZM12.8609 35.4475C10.9928 35.4475 9.45848 34.1043 9.10119 32.3275H16.5832C16.2636 34.1033 14.7301 35.4475 12.8609 35.4475ZM31.9009 35.4475C30.0328 35.4475 28.4985 34.1043 28.1412 32.3275H35.6231C35.302 34.1027 33.7315 35.4475 31.9009 35.4475ZM37.1481 30.9275H30.1461C31.6743 29.8323 32.662 28.1128 32.9847 25.9096C35.0598 26.4188 36.8354 28.5299 37.1481 30.9275Z" fill="white" stroke="white" stroke-width="0.2"/>
</g>
</g>
</g>
</svg>
