<svg width="18" height="18" viewBox="0 0 18 18" fill="none" xmlns="http://www.w3.org/2000/svg">
<path d="M3.58594 1.30625L3.58582 1.30625C2.98145 1.30693 2.40203 1.54732 1.97467 1.97467C1.54732 2.40203 1.30693 2.98145 1.30625 3.58582V3.58594V14.4141L1.30625 14.4142C1.30693 15.0185 1.54732 15.598 1.97467 16.0253C2.40203 16.4527 2.98145 16.6931 3.58582 16.6938H3.58594H14.4141H14.4142C15.0185 16.6931 15.598 16.4527 16.0253 16.0253C16.4527 15.598 16.6931 15.0185 16.6938 14.4142V14.4141V3.58594V3.58582C16.6931 2.98145 16.4527 2.40203 16.0253 1.97467C15.598 1.54732 15.0185 1.30693 14.4142 1.30625H14.4141H3.58594ZM14.4139 17.9H3.58605C2.66183 17.8989 1.77577 17.5313 1.12224 16.8778C0.468714 16.2242 0.101085 15.3382 0.0999999 14.4139L0.1 3.586C0.1011 2.66179 0.468727 1.77575 1.12224 1.12224C1.77577 0.468714 2.66183 0.101085 3.58606 0.0999999L14.414 0.1C15.3382 0.1011 16.2242 0.468727 16.8778 1.12224C17.5313 1.77577 17.8989 2.66183 17.9 3.58605V14.4139C17.8989 15.3382 17.5313 16.2242 16.8778 16.8778C16.2242 17.5313 15.3382 17.8989 14.4139 17.9Z" fill="#1D4289" stroke="white" stroke-width="0.2"/>
<path d="M9 11.3034C8.84004 11.3034 8.68663 11.2399 8.57353 11.1268C8.46042 11.0137 8.39688 10.8603 8.39688 10.7003V4.16406C8.39688 4.0041 8.46042 3.8507 8.57353 3.73759C8.68663 3.62448 8.84004 3.56094 9 3.56094C9.15996 3.56094 9.31337 3.62448 9.42647 3.73759C9.53958 3.8507 9.60312 4.0041 9.60312 4.16406V10.7003C9.60312 10.8603 9.53958 11.0137 9.42647 11.1268C9.31337 11.2399 9.15996 11.3034 9 11.3034Z" fill="#1D4289" stroke="white" stroke-width="0.2"/>
<path d="M8.23209 11.4814L8.23192 11.4812L5.50521 8.75484C5.50521 8.75484 5.50521 8.75484 5.5052 8.75484C5.39207 8.6417 5.32852 8.48826 5.32852 8.32827C5.32852 8.16827 5.39207 8.01483 5.50521 7.90169C5.61834 7.78856 5.77179 7.725 5.93178 7.725C6.09178 7.725 6.24522 7.78856 6.35835 7.90169C6.35835 7.90169 6.35836 7.90169 6.35836 7.90169L8.93074 10.4744L9.00145 10.5451L9.07217 10.4744L11.6445 7.90169C11.7006 7.84567 11.7671 7.80124 11.8403 7.77092C11.9135 7.7406 11.9919 7.725 12.0711 7.725C12.1503 7.725 12.2288 7.7406 12.302 7.77092C12.3752 7.80124 12.4417 7.84567 12.4977 7.90169C12.5537 7.95771 12.5981 8.02422 12.6285 8.09741C12.6588 8.1706 12.6744 8.24905 12.6744 8.32827C12.6744 8.40749 12.6588 8.48594 12.6285 8.55913L12.7209 8.5974L12.6285 8.55913C12.5981 8.63232 12.5537 8.69882 12.4977 8.75484L9.77098 11.4812L9.77081 11.4814C9.67002 11.5826 9.55016 11.6629 9.41815 11.7175C9.28614 11.7721 9.14461 11.8 9.00175 11.7996L9.00115 11.7996C8.85829 11.8 8.71676 11.7721 8.58475 11.7175C8.45274 11.6629 8.33288 11.5826 8.23209 11.4814Z" fill="#1D4289" stroke="white" stroke-width="0.2"/>
<path d="M12.0713 14.3687H5.93164C5.77168 14.3687 5.61827 14.3052 5.50517 14.1921C5.39206 14.079 5.32852 13.9256 5.32852 13.7656C5.32852 13.6057 5.39206 13.4523 5.50517 13.3392C5.61827 13.226 5.77168 13.1625 5.93164 13.1625H12.0713C12.2313 13.1625 12.3847 13.226 12.4978 13.3392C12.6109 13.4523 12.6745 13.6057 12.6745 13.7656C12.6745 13.9256 12.6109 14.079 12.4978 14.1921C12.3847 14.3052 12.2313 14.3687 12.0713 14.3687Z" fill="#1D4289" stroke="white" stroke-width="0.2"/>
</svg>
