<svg width="34" height="34" viewBox="0 0 34 34" fill="none" xmlns="http://www.w3.org/2000/svg">
<path d="M6.77344 2.55625L6.77332 2.55625C5.65527 2.55751 4.58338 3.00221 3.79279 3.79279C3.00221 4.58338 2.55751 5.65527 2.55625 6.77332V6.77344L2.55625 27.2266L2.55625 27.2267C2.55751 28.3447 3.00221 29.4166 3.79279 30.2072C4.58338 30.9978 5.65527 31.4425 6.77332 31.4438H6.77344H27.2266H27.2267C28.3447 31.4425 29.4166 30.9978 30.2072 30.2072C30.9978 29.4166 31.4425 28.3447 31.4438 27.2267V27.2266V6.77344V6.77332C31.4425 5.65527 30.9978 4.58338 30.2072 3.79279C29.4166 3.00221 28.3447 2.55751 27.2267 2.55625H27.2266L6.77344 2.55625ZM27.2264 33.9H6.77355C5.00426 33.8979 3.30802 33.1941 2.05693 31.9431C0.80585 30.692 0.102078 28.9957 0.0999999 27.2264L0.1 6.7735C0.102093 5.00422 0.805863 3.308 2.05693 2.05693C3.30802 0.80585 5.00426 0.102078 6.77355 0.0999999L27.2265 0.1C28.9958 0.102093 30.692 0.805863 31.9431 2.05693C33.1941 3.30802 33.8979 5.00426 33.9 6.77355V27.2264C33.8979 28.9957 33.1941 30.692 31.9431 31.9431C30.692 33.1941 28.9957 33.8979 27.2264 33.9Z" fill="white" stroke="#517CD0" stroke-width="0.2"/>
<path d="M17 21.4416C16.6743 21.4416 16.3619 21.3122 16.1316 21.0819C15.9013 20.8515 15.7719 20.5392 15.7719 20.2134V7.86719C15.7719 7.54147 15.9013 7.22909 16.1316 6.99877C16.3619 6.76845 16.6743 6.63906 17 6.63906C17.3257 6.63906 17.6381 6.76845 17.8684 6.99877C18.0987 7.22909 18.2281 7.54147 18.2281 7.86719V20.2134C18.2281 20.5392 18.0987 20.8515 17.8684 21.0819C17.6381 21.3122 17.3257 21.4416 17 21.4416Z" fill="white" stroke="#517CD0" stroke-width="0.2"/>
<path d="M15.4864 21.7532L15.4862 21.7531L10.3358 16.6032C10.3358 16.6032 10.3358 16.6032 10.3358 16.6032C10.1054 16.3729 9.97598 16.0604 9.97598 15.7346C9.97598 15.4089 10.1054 15.0964 10.3358 14.866C10.5661 14.6357 10.8786 14.5063 11.2044 14.5063C11.5302 14.5063 11.8426 14.6357 12.073 14.866L16.9319 19.7256L17.0026 19.7964L17.0733 19.7256L21.9323 14.866C21.9323 14.866 21.9323 14.866 21.9323 14.866C22.0464 14.752 22.1818 14.6615 22.3308 14.5998C22.4798 14.538 22.6396 14.5063 22.8009 14.5063C22.9622 14.5063 23.1219 14.538 23.271 14.5998C23.42 14.6615 23.5554 14.752 23.6695 14.866C23.7836 14.9801 23.874 15.1155 23.9358 15.2646C23.9975 15.4136 24.0293 15.5733 24.0293 15.7346C24.0293 15.896 23.9975 16.0557 23.9358 16.2047C23.874 16.3538 23.7836 16.4892 23.6695 16.6032L18.519 21.7531L18.5189 21.7532C18.3202 21.9528 18.0839 22.111 17.8237 22.2187C17.5635 22.3264 17.2845 22.3814 17.0029 22.3805L17.0023 22.3805C16.7207 22.3814 16.4417 22.3264 16.1815 22.2187C15.9213 22.111 15.6851 21.9528 15.4864 21.7532Z" fill="white" stroke="#517CD0" stroke-width="0.2"/>
<path d="M22.8013 27.2281H11.2041C10.8784 27.2281 10.566 27.0987 10.3357 26.8684C10.1054 26.6381 9.97598 26.3257 9.97598 26C9.97598 25.6743 10.1054 25.3619 10.3357 25.1316C10.566 24.9013 10.8784 24.7719 11.2041 24.7719H22.8013C23.127 24.7719 23.4394 24.9013 23.6697 25.1316C23.9 25.3619 24.0294 25.6743 24.0294 26C24.0294 26.3257 23.9 26.6381 23.6697 26.8684C23.4394 27.0987 23.127 27.2281 22.8013 27.2281Z" fill="white" stroke="#517CD0" stroke-width="0.2"/>
</svg>
