<svg width="25" height="25" viewBox="0 0 25 25" fill="none" xmlns="http://www.w3.org/2000/svg">
<g id="logo-facebook">
<path id="Path" d="M23.9583 0H1.04167C0.46637 0 0 0.46637 0 1.04167V23.9583C0 24.5336 0.46637 25 1.04167 25H13.3533V15.3187H10.0953V11.5457H13.3533V8.76322C13.3533 5.53417 15.3255 3.7759 18.206 3.7759C19.5858 3.7759 20.7717 3.87863 21.1173 3.92454V7.29908L19.1195 7.29999C17.5529 7.29999 17.2495 8.04441 17.2495 9.1368V11.5457H20.9857L20.4993 15.3187H17.2495V25H23.9583C24.5336 25 25 24.5336 25 23.9583V1.04167C25 0.46637 24.5336 0 23.9583 0Z" fill="white"/>
</g>
</svg>
