<svg width="30" height="27" viewBox="0 0 30 27" fill="none" xmlns="http://www.w3.org/2000/svg">
<g id="Group">
<path id="Vector" d="M1.53816 26.8008H10.8918C11.741 26.8008 12.4302 26.1116 12.4302 25.2624V15.9087C12.4302 15.0595 11.741 14.3703 10.8918 14.3703H6.41498C6.47344 11.9211 7.04266 9.96114 8.11956 8.48733C8.96877 7.32428 10.2549 6.36122 11.9749 5.60124C12.7656 5.25355 13.1071 4.31819 12.7379 3.53663L11.6303 1.19822C11.2733 0.447502 10.3903 0.118246 9.62722 0.4475C7.59034 1.32748 5.87034 2.44131 4.46733 3.79512C2.75657 5.44739 1.58431 7.31197 0.95048 9.39192C0.316618 11.4719 -0.000268936 14.3087 -0.000268936 17.9087V25.2624C-0.000268936 26.1115 0.688978 26.8008 1.53816 26.8008Z" fill="#00A984"/>
<path id="Vector_2" d="M26.7374 0.453659C24.7251 1.33056 23.0144 2.44436 21.6021 3.79513C19.876 5.4474 18.6976 7.30582 18.0637 9.37039C17.4299 11.435 17.113 14.2811 17.113 17.9087V25.2624C17.113 26.1116 17.8022 26.8008 18.6514 26.8008H28.0051C28.8543 26.8008 29.5435 26.1116 29.5435 25.2624V15.9087C29.5435 15.0595 28.8543 14.3703 28.0051 14.3703H23.5283C23.5867 11.9211 24.1559 9.96115 25.2328 8.48733C26.0821 7.32428 27.3682 6.36122 29.0881 5.60124C29.8789 5.25356 30.2204 4.31819 29.8512 3.53664L28.7466 1.20438C28.3897 0.453659 27.5005 0.121328 26.7374 0.453659Z" fill="#00A984"/>
</g>
</svg>
