<?xml version="1.0" encoding="UTF-8"?>
<svg version="1.1" viewBox="0 0 1600 593" width="1280" height="1280" xmlns="http://www.w3.org/2000/svg">
<path transform="translate(0)" d="m0 0h1600v593h-1600z" fill="#163258"/>
<path transform="translate(209,151)" d="m0 0 9 1 38 9 40 9 28 7 28 6 67 16 39 9 27 7 26 6 18 4h5v2l11 2 39 9 43 11 27 6 8 3 1 5-11-1-33-7-35-8 1 3 4-1 6 5 5 6-2 4-3-1-1 3h-3l-2 2-10-1-36-7-18-3h-16l-12-3-38-6 18 4 9 3 2 2-2 14 1 5-1 2h-2v2l-9 4 5 13 1 4 2-15h14l19 1 6 1v2l10 2 4 2v2l4 1 2 3 5 1 8-3 9-1 10-6 7-3 6-3h9l5 5 2 1v2l3 1 1 5v6l1 4h2v2h-78l-17 1 3 3 1 3 7 1 1 3h3v6l7 1v1l10 1v1l-10 1h-14l-1-2-2 2h-19l-2 10 5 1-1 4h-4l1 22h16l32 2-2 6v6l-4 4-2 4-13-2-22-4-26-5-10-2-36-5v2h-2l1 3 43 5 45 6 13 2 1 1 13 1 8 3 2 16 6 2 1-1 1-8 5 1 3 10 7 1h2l1-16h14l3 1v2l3-1h23l27 3 14 2 8 6-1 7 6 3 1 4-5 2h-10-2l23 2 7 1-1-5h7l13 3 6 2-2 2-9 1-4 3 7 11 13 30 9 23 9 27 7 27 4 15 1 2h6l-1 11h2l-1 2 3 2 3 3h-766v-437l10-2 13-1h30l19 4 12 5 12 8 9 7 18 2 23 4 4 2v12h-7l-20-5h-4l6 10 8 14 7 14 9 2 7-1h13l11-1 10 5 1 5 1 2 4-4h5v-3l2-1 30-1 22-1 1-2 2 1 10-4-1-12 1-1-62-12-1 5-3 2v-2l-24-4-21-4-1-1v-12l3-1 24 5 33 6 44 9 1-1-9-1-35-8-3-3-4-11 1-8-3 5-1-3 2-6-3-1 1-2-4-4-6-3 2-4 1 1 2-2h8z" fill="#3D638A"/>
<path transform="translate(1218,213)" d="m0 0 3 1v5l-1 2v12l-5 3h-2l-2 4-5 3-4 10-4 5-1 6h2v-2l5-4 7-8 10-9 11-7 8-1-3 7-2 7-2 1 1 3 1-1 2-6 3-4 1-4 4-2 5 3 2 1v8l-1 2-9 5-3 5-5 2-1 2h-2l-1 3 9 8-3 6h-4l-7 19-8 26-18 53-6 20v6l1 2-9 19-11 23-8 14-12 22-7 12-3 7-4 4-7 12v3l1 2-3 9 1 6 2 5-5 2-5 10v5l4 2 2 3 2 11h9l1 1-1 12-1 4h-338l5-4h3v-2l-9-3 3-2h6l3 2v3h2l-1-5 2 1v2l13-3 8 1 4 2v3l2 1-9-19 1-4 14-13 8-7 10-8 8-8 5-2 1-3 7-3 11 1 5 1 8-13 4-5 2-1 4-7 7-6 8-5 16-4h23l17 7 23 10 3 1 18 1v-2l15-2 9-6 4-1h11l9 6 3 4 4-2 6-8 8-8 8-4 6-47 4-23 3-14v-4l-33-1-4-1v-2l4-2 13-3 6-2 9 1h7l1 1 5-25 2-13 6-15 5-9 7-10 3-11h2l1-4 1-1 1-17 3-7 10-17 2-1-3 12-2 4-1 14 13-20 8-13 11-18 9-12h2l2-4z" fill="#3D638A"/>
<path transform="translate(75,419)" d="m0 0 1 2h2v4h10l1 2 2 15v5l-2-4-1-8-5 4 1 1v9h-1v-7l-9 2v2l-4 1-3-5-1-9-1-2-3 1v2l3-1 4 28 1-4-1-3h31l-5-18v-2l12 2 32 7v-2l-3-1 10-3 1-1h-9l-9-1-1-4h23l50 3 5 1-1 2 1 24v93l5 2v-81l-1-26 2-7 3-1 2 10 1 19 1 8 1 1 1-2 1-24 1-3h2l2-4 2-2 1-6-4-1v-1l13 1-1 4 2 13v5l4-1 2-13 2 2 2 17v91l-6-5-4 1-1 2-4 2v2l-11 2-6 3h-6l-5-5-6-2-32-2-19-2h-8l12 2 19 4-2 4 3-1h5v2l11-3-6-1v-1h18l6 3 1 2v11l1 3-8-1-1-2 2-6h2l-4-4-6 2-4 8v10l9 4 6 2-4 1 6 2v1h-159l2-42 2-26h-5l-1 21-2 7-1 3 2 2-5 1h-7l-5-2-5-6h-7l-4-2v-35l4-2 5 2 6 3h11l6 3h9l11-1h15l30-2-15 1h-19l-1-14-3-27 2 24 1 15-3 1h-8-2l-10 1-3-5-2-3 1-6 1-19 2-10 1-13 2-5 3-1-1-9v-20l1-1h14v-2h-8v-1h12z" fill="#163258"/>
<path transform="translate(304,256)" d="m0 0 10 1 21 4 18 2 8 3v12l-1 2-2-1-2-3 1-5 1-2h-7l1 7h-2v-7h-2l1 4-2 3 10 2-1 2 5 2v14h-2l-1 3-3-1 2 5 4 3 1 16-7 3-2-2h-14l-2-1v5l11 2 1 3h-11l-21-2-5-1h-3l-2-2h-14l-3-1v2h18v2l9 1v1h-5l2 9 4 27-2 2-49-6h-7l45 6 55 5 7 1v1h-10l-55-4h-11l-27-3-13 1-14 4-9 2-10 6-2 4v7l2 5 10 4 13 2 106 8 48 3 8 1v1h-15l-74-5-53-4-61-4-38-1-3-1-5 1-7-1-16-4-3-3-1-4 8-16 1-7-1-9-3-5v-2l-3-1 6-11 8-19 3-11 2-16 1-24 2-1v4l16 3 39 5 18 3 3 1 2 13 2-2 1 2-2 4 2 1 2 2 6 2 7 3v-8l4-5v-8l-1-1v-11l2-11 1 3 25 3 7 1 2 4h2v3h5l-4 2 9 3v1l-9 1v3l10 1 4 3-1-8 1-4-2-1 4-1v-20l-2-1z" fill="#163258"/>
<path transform="translate(583,437)" d="m0 0h7l7 5 9 12-5-9v-2h40l40 2 19 2 5 8 3 6-1 2-2-3 3 10 6 15 4 9 3 10 3 9 2 9 2 13-1 2h3v5l-3-1h-43l4 1 15-1 6 1 1 4 8-1 3 5 4 2 1 5-8 5-3 3 2 1v6l-4-2-3-3v-2h-2v-2l-13 1v10l11-1h12l22 1 1 7 3 5 2 4v3h-120l-2-36-2-4-2-9-7-16-1-3 1-2-4-1 2-2-4-12-5-10-3-10-10-23-7-16-1-7z" fill="#163258"/>
<path transform="translate(607,24)" d="m0 0 15 2 13 5 1 3 5 2 3 1v2l8-1 42 18 1 7 3-1 1-2 7 1 1 2v5l4 4 3-1 2-5 3 1 1 13 2 8-1 5 2 6 3 1v-16l2-10 2 2 1 19v84l-3-2-10-2-14-4-10-4v-2h-7l-35-12-44-14-1-3-1-102z" fill="#07586E"/>
<path transform="translate(279,439)" d="m0 0 44 2 67 4 7 1v1l-13 3-4 1v2l6 2 3 4 3 7 1 11 3 5 3 2 4-1 4-8 2-9 3-4 2-10v-4l-2 2-1-2 1-2h6l1 4-5 40-1 5-2 2 1 1v8l-17 1-1 1v8l-5 2 1 6-4 2v-30l1-3h-22l2 8 1 28-3 2-3-1v-36h-16l-36 2 1 5 1 24-1 10-5 10-4-1v-7l2-5 2-1-1-10-3-24h-33v27l2 10-1 8-10 10-5 11h-2l-1-10 1-13v-38l1-38 1-14h2v-2l6-2 10-2 2-4z" fill="#163258"/>
<path transform="translate(916,506)" d="m0 0 3 1h-2l-2 7 4-2 2 10-1 4-1 2h5v-8h2v-2l24 2 2 2 9 1 5 4v2l-7 3-1 1 9-1 3-1 1 4-5 8h-2l-1 4-2 4-1 15-2 4v5l-3 2-7 1-5-2v-3l-3 1-2 3 11 2h14l1-3h2l4-6 17-4h5l2-4 3-1 2 1 1-3 5 12-1 3-11 3-20 4-2 6-8 4v2h-161l5-4h3v-2l-9-3 3-2h6l3 2v3h2l-1-5 2 1v2l13-3 8 1 4 2v3l2 1-9-19 1-4 14-13 8-7 10-8 8-8 5-2 1-3 7-3 11 1 5 1 8-13z" fill="#3C638A"/>
<path transform="translate(762,286)" d="m0 0h9l-2 5-1 1v39l12 1 2 2h-9l-6-1v10h6l-4 2-2-1 1 11v8l3 3 19 1 3 2 1 12 1 2 7-1 5-3 2-9-1-6-3-2 1-4 9-1 3-2 2-7 5 1 3 5 10 2 5 5 6 5 5 2h5 4l3 3v2h-2l-1 6-3 7 20-12 7-5h2v-2h2l-2 4-9 7-14 10-3 6-9 10-4 7-1 5-5 3-4 4-9 1-5-2 2-6 3-5h2v-2l1-1-11 6-7 12-9 21-5 20-2 14-2 30v70l-5-2v-2l-3-1h2v-59l2-31 4-26 5-19 10-23-42-4-4-1-1 3v-3l-3-1-2-9-3-4-2 3v6l-4-1-3-7-7 1-2-19-2-7 3-5 2-2h10l8 1 1-24h-11l-2-4 1-6v-2h-12l2-2h22l-1-27v-15z" fill="#3D638A"/>
<path transform="translate(901,273)" d="m0 0h9l8 4v2l10 1 12 3 2 1v9h13l-2 6 10 5v35l-2 3-4-1-4 2-9 2v2l2 1 16 1 1 2v29l-35 2h-17l-2-1-4-18-2-8-3-26 1-17 2-17 4-2h20l1-5-16 1h-11z" fill="#3E648B"/>
<path transform="translate(481,303)" d="m0 0 4 2 3 5 1 4 5 5v1l-5 1-1 8-4 4h-3v7l5 3 2 2 1 8 6-4h2v11l1 3v7h-22l-56-6-4-3h-7l-2-42v-15l15 1 56 6 1-4z" fill="#163258"/>
<path transform="translate(226,436)" d="m0 0 13 1-1 4 2 13v5l4-1 2-13 2 2 2 17v91l-6-5-4 1-1 2-4 2v2l-11 2-6 3h-6l-3-4 1-2h1v-81l-1-26 2-7 3-1 2 10 1 19 1 8 1 1 1-2 1-24 1-3h2l2-4 2-2 1-6-4-1z" fill="#163258"/>
<path transform="translate(953,483)" d="m0 0h23l17 7 23 10 3 1 18 1 2 10 1 14-2 1-3-5-9-4-2 4-1-3 1-9 1-2h-2v7l-2-1-7 3-9 4h-8l-7 1-20-3-2-1h-24l-11-1-7 1v2h-2l1 9-6-1 1-6-1-8h-4l2-7 4-8 8-7 8-5z" fill="#27668B"/>
<path transform="translate(572,315)" d="m0 0h3l1 2 1-1h9v1h-8v3h8l2-2-1-2 13 1 4 1 1 10 5 3 6 1 1-2 1 1 11 1 9 1-1-7 2-4 1 4-1 2h2l1 2 2 13 1 34v17l-12 2-8-1v3h-10l-14-2v-12l1 2 2-1-3-3v-8l13 1-1-36h-4v-2l-30-1-14-3 2-2-2-5v-2l-1-3h5l1 1v-4h2z" fill="#3D638A"/>
<path transform="translate(1310,258)" d="m0 0 4 2 11 15 10 15 11 19 10 23 6 19 4 20 4 39v15h-2v9l-2 9-2 16-4-1v-38l-1-21-2-10-3-1-5 2-2-4-3-29-4-13-2-13-3-4h-5l-1 2-2 27h-1l-1-41 1-1v-8l-7-10-1-2-1-12-6-10-2-11z" fill="#3E648B"/>
<path transform="translate(578)" d="m0 0h1v137h-1l-1-14h-2v-3l-3 2-2 12-2 3h-3v2l-9 5-3 3h-3l-1-23 1-100 4 5 1 11 5-2 3 8 4 15 4 9 1 6 4-4v-7l1-2v-27z" fill="#3D638A"/>
<path transform="translate(483,90)" d="m0 0 8 1 8 7 6 9 5 13 3 9v7l-4 2h-7l-12-2-2 5-1 5-5 5-1 8 5 1 1 2 1-4 5 1 2 4 1 14 3-1 1-15 1-5 4 1 2 3 1 13 7 9-4 1-60-16 1-3 2-1 13 1 2-29 4-6 4-20 3-16z" fill="#3E648B"/>
<path transform="translate(606,44)" d="m0 0h1v6l12 2 6 2v2h17l5 2v10l-4 11-2 13-3 4h-7l-2 4h-3l-3 10v18l-4 3-11 2-1 3z" fill="#0D496C"/>
<path transform="translate(693,56)" d="m0 0h1l1 7 3-1 1-2 7 1 1 2v5l4 4 3-1 2-5 3 1 1 13 2 8-1 5 2 6 3 1v-16l2-10 2 2 1 19v84l-3-2-7-1 3-1 2-7-1-10-2-23-4-9-10-1-4-4v-2h-2l-4-8-1-9 3-3 5 1-4-6-5-3v-2h-2l-6-7v-5h-2v-4l7-1-2-6z" fill="#0E496C"/>
<path transform="translate(0,399)" d="m0 0 2 3 2 6 2 2 2 15 1 2 4 2 2 16 7 2 4 4 2 4 8 3 1 7-1 20-2 11-6 2-5 2-5 1-4-3-1 3-2-1-1-15-1-34-1 33-3 5v9l-5 2z" fill="#163258"/>
<path transform="translate(609,523)" d="m0 0h4l1 5 8 18 1 7 2 6 1 16v18h-23l-3-17-12-37 1-3h2l13-10z" fill="#3E648B"/>
<path transform="translate(957,484)" d="m0 0h11v6h12l5 5-1 5-5 6-6 3-3 5h-2v-3l-12-1v-3h-2l-2 4-4 1-3-1v-2l3-1h-5v3l-7 1-3 2h-5l-2 2h-3l2 4v9l-6-1 1-6-1-8h-4l2-7 4-8 8-7 8-5 3-1h8l3 1h7z" fill="#437298"/>
<path transform="translate(979,527)" d="m0 0h18l15 1-6 9-5 8-1 12-3-1-1 2-4-1-2 3-1-5-5 1-1 5h-1v-7h-2l-1 10-2-4-2 3-1-2-4-1-2 5-3 1-2 6-2-1 2 8-2 1h-12l-12-2 3-5 5 1v3l10-1 3-1-1-6 2-3 1-15 4-8h2l2-5 2-4-1-2-2 1h-6l2-2 9-3z" fill="#437298"/>
<path transform="translate(16,512)" d="m0 0 6 2 6 3h11l6 3 9 1v6l-1-2h-5l-1 21-2 7-1 3 2 2-5 1h-7l-5-2-5-6h-7l-4-2v-35z" fill="#163258"/>
<path transform="translate(674,335)" d="m0 0 1 2 3 1 2 5 1 5-1 5 1 1v6h-2v6l9 3 1-2 10-2h9l-3 5 5 2 1 3 1-1h8l1 4-5 5-5 1-1 4-7 4-5 11-4-1-3-7-2 1v-2h-2l-1 2-4-3-6 2-3-1v-57z" fill="#3D638A"/>
<path transform="translate(666,327)" d="m0 0 2 3 1 3v60l-5-1-1-3h-2l-1 3-1-3-3-1v-2l-4 4h-2l-1-4-1-48 1-4 4 1 1 8 3-5 1-7 2-1v2h5z" fill="#3D638A"/>
<path transform="translate(420,364)" d="m0 0 21 1 35 4 22 1v-2h2v2h16l32 2-2 6v6l-4 4-2 4-13-2-22-4-26-5-10-2-9-1-1-3h17l10 2 27 8 16 1-5-4-5-2v-3l-39-3-30-5-30-4z" fill="#3D638A"/>
<path transform="translate(277,111)" d="m0 0 17 1 10 3 10 5 15 4 7 3 20 5 9 6v5l-8-1-57-15-22-6-3-3z" fill="#3E648B"/>
<path transform="translate(607,24)" d="m0 0 15 2 13 5 1 3 5 2 3 1v2l8-1 21 9 2 2-2 2-1 5-7-1-4-10-5 1-4 4-10 1-12-3-12-8-11-6z" fill="#0D496C"/>
<path transform="translate(396,180)" d="m0 0h9l6 1 3-1 5 3 2-1 17 5 9 3 6 4v2l4 2-1 4h-14l-16-3-7-3-9-1-4-1-11-4-4-4 2-4z" fill="#3E648B"/>
<path transform="translate(849,288)" d="m0 0h4l1 3v34l4 5v2h2l6 10-3 1-9-2-9-1 2-2h-8l-2-3v-11l2-6 3-6 1-5 1-18z" fill="#3E648B"/>
<path transform="translate(411,364)" d="m0 0h9l50 7 10 2 40 3-1 4 7 2 4 5-17-1-30-9-20-2 1-2-24-4-9-1v2h-11-1l4 2h-14l-1 2v-2h-10l-20 3h-6l-2-2h5l1-3 16-3 11-2h6z" fill="#163258"/>
<path transform="translate(933,489)" d="m0 0 4 2 5-2h14l4 2h4l1 4 5 1v6l-4 3-26 1-4 2-9 3-4 3h-2l1-7 6-9h2v-3h-2v2l-5 3v-3l6-5z" fill="#3D648B"/>
<path transform="translate(85,382)" d="m0 0h5v4l-7 1h-2l1 3-1 1 7-1 1 4-2 4-11 4-1 1-14 1h-8l-2-2 2-2-2-4 2-1-2-2-1-5 1-1 16-2v-1z" fill="#16345A"/>
<path transform="translate(732,282)" d="m0 0h8l-3 3-1 12-1 36-1 61-1 14-2-1-1-43-1-23-1-56z" fill="#3E648B"/>
<path transform="translate(1041,199)" d="m0 0 6 5 2 9 6 4 2 2 6 1-1 4-7 8-4 4v2l-4-2-5-5-7-11-4-8 1-6h2l1-3z" fill="#3D638A"/>
<path transform="translate(494,257)" d="m0 0h7l4 3 4-1 8 2 1 1-1 18-5 3h-13l-6-3-2-2v-4h2z" fill="#3E648B"/>
<path transform="translate(653,561)" d="m0 0h7l-2 5 9-1 1-4h7l1 3 5 1v12l-2 1-10 1h-16v2h13l-2 2h-10l-1 6h17l1 4h-20v-14l1-17z" fill="#3E648B"/>
<path transform="translate(526,264)" d="m0 0h10l33 7 2 1 14 2 4 1-1 4-6 1-49-3-7-1z" fill="#3E648B"/>
<path transform="translate(868,545)" d="m0 0 4 4 6 10-1 4-16 12-6 5-6-9-3-4 2-4 12-11z" fill="#163258"/>
<path transform="translate(273,342)" d="m0 0h39l-1 5-4 4-2 4-3-6h-13l-2 3-1 5 4 1-4 1 6 3h8l-1 3-2 1-13-1-21-4v-1h8v-8-3-5z" fill="#3E648B"/>
<path transform="translate(1222,294)" d="m0 0 1 3-5 18-10 25-2 3h-2l-1 7-5 5h-5l-2-2 1-5 4-6 1-4 16-32 6-9z" fill="#163258"/>
<path transform="translate(926,518)" d="m0 0 24 2 2 2 9 1 5 4v2l-7 3-5 3-9 1-6 4-2-4-9-6 1-3-4-1v-6z" fill="#0D4B6C"/>
<path transform="translate(931,550)" d="m0 0 3 4v3l6-2 1 3 4 2-11 7-7 8-18 5-2 1-2-3-7 3-2 3-4-1-2-4 10-4 17-6 7-3 1-6-2-5 5-1 1-2 2 1z" fill="#163258"/>
<path transform="translate(75,419)" d="m0 0 1 2h2v4h10l1 2 2 15v5l-2-4-1-8-5 4 1 1v9h-1v-7l-9 2v2l-4 1-3-5-1-9-1-2h-6l-2-2v-3h14v-2h-8v-1h12z" fill="#163359"/>
<path transform="translate(54,520)" d="m0 0h14l1 26-2 6-2-2-2-10-1 4-1 14-3 10h-2l-1-2v-28l3-10h-4z" fill="#17416B"/>
<path transform="translate(999,559)" d="m0 0 2 3 4 9-1 3-11 3-11 2h-17l-2-2 3-1 4-6 17-4h5l2-4 3-1 2 1z" fill="#0D496B"/>
<path transform="translate(57,428)" d="m0 0 3 2-1 2h3v2l3-1 3 21v24l1 6h-2l-3-8-3 3-1-4v-17l1-4h-2l-1 3-2-10v-18z" fill="#174069"/>
<path transform="translate(73,526)" d="m0 0 2 4 2 8 2 19 61 2 3 3-4 2h-30l-25-1v2h-2v-3h-2v5l-2 1-5-35z" fill="#3E648B"/>
<path transform="translate(781,453)" d="m0 0h1l1 10 1 9v19l-5 3-2 6-4-1v-32h3v-10l5-1z" fill="#3E648B"/>
<path transform="translate(111,464)" d="m0 0 6 2 1 2v6h2l1 5h2l1 7-1 4h-4l-2-3h-2v-2l-4 2 6 18 1 8 2 2h-16v-1l8-1h4l-4-15-1-3h-2l-1-9-3-6 1-15z" fill="#3C6188"/>
<path transform="translate(977,554)" d="m0 0h1l1 6 1-6h2l1 2 4-1h2l1 4 2-3 1 1 2-2 2 5-5 6-15 3-8 3-3 5-4 1-2-4 1-4 1 1 3-8 1 2h2l1-6 6 2z" fill="#39648B"/>
<path transform="translate(257,503)" d="m0 0 2 2 1 4v12h5l1-5h1l1 9 2 3 1 6-1 8-10 10h-2l1-8 2-5-1-5-4-10v-15z" fill="#17406A"/>
<path transform="translate(1186,240)" d="m0 0 2 1-1 4 2 9-1 5-11 17-5 8h-1v-9l2-10 3-8 1-7z" fill="#0E486B"/>
<path transform="translate(804,582)" d="m0 0h6l3 2v3h2l-1-5 2 1v2l13-3 8 1 4 2v3l-4 1-1 2h3v2h-37l5-4h3v-2l-9-3z" fill="#3B6087"/>
<path transform="translate(945,491)" d="m0 0 2 2 7-1 2-1 4 7 5 1v4l-20 1-16 3-4 2 2-6 7-6 3-1h7z" fill="#07586D"/>
<path transform="translate(1e3 574)" d="m0 0h4l1 3-13 4-19 3 2 8-2 1h-12l-1-3 9-3 1-5-1-2 22-4z" fill="#437197"/>
<path transform="translate(434,380)" d="m0 0h9l32 4 15 2 3 2-1 1h-12l-36-4-2-1h-8l-2-2h2z" fill="#3E668C"/>
<path transform="translate(71,471)" d="m0 0h1l5 40v6h18l11-1h10v1l-17 2-22 1h-23v-2l4-1h4l1-2 1 1h11l-4-35z" fill="#3E668C"/>
<path transform="translate(1177,252)" d="m0 0 1 2-3 10-2 4-2 18-1 2-4 1-2-7h-1l1-9 12-20z" fill="#3C648B"/>
<path transform="translate(671,287)" d="m0 0h10l1 5-9 2-20 2-2-5 1-2z" fill="#3E648B"/>
<path transform="translate(459,375)" d="m0 0h17l10 2 31 9v1h-8l-40-8-9-1z" fill="#3E648B"/>
<path transform="translate(1130,317)" d="m0 0h10l5 2-2 5h-2v2l-13 1-6-3v-4z" fill="#3E648B"/>
<path transform="translate(698,563)" d="m0 0h10v2h2l6 8-10 1h-11v-10z" fill="#3E648B"/>
<path transform="translate(915,350)" d="m0 0h10l4 4-1 5-6 3-9-2-3-3 1-4z" fill="#163258"/>
<path transform="translate(675,49)" d="m0 0 5 1 10 5-2 14-8-6-5-5z" fill="#0E496C"/>
<path transform="translate(886,581)" d="m0 0h3l1 7-9 3h-4v2h-16l4-3z" fill="#163258"/>
<path transform="translate(931,550)" d="m0 0 3 4v3l6-2 1 3 4 2-8 5-11-1-3-9 5-1 1-2 2 1z" fill="#0D496C"/>
<path transform="translate(61,214)" d="m0 0 5 2 4 6 2 1 3 12-1 8-1 4 3 1-3 3h-5l1-3h2l-1-12-8-18z" fill="#437298"/>
<path transform="translate(444,385)" d="m0 0 17 1 32 3 12 2v1h-11l-17-1h-5l-3 1v7l-2-1-1-7-2-1-12-1-3 2v-3l-5-2z" fill="#163258"/>
<path transform="translate(1152,377)" d="m0 0h6l-1 14-1 4-4 1v-2l-3-1-1-5v-9z" fill="#437298"/>
<path transform="translate(657,300)" d="m0 0 5 1v18l-2 1-2-6h-6v-3l8-2-1-2-10 1-3-2 2-4z" fill="#3E648B"/>
<path transform="translate(73,526)" d="m0 0 2 4 2 8 2 19 17 2 26 1v1h-34l-8 1v5l-2 1-5-35z" fill="#3E648B"/>
<path transform="translate(1186,256)" d="m0 0 3 1-12 19-5 8h-1v-9l1-7h2l2-4 3 1 4-8z" fill="#163E67"/>
<path transform="translate(1599,573)" d="m0 0h1v20h-21l4-2 8-5 5-6z"/>
<path transform="translate(0,573)" d="m0 0 2 3 5 8 6 5 7 3v1h-20z"/>
<path transform="translate(1580)" d="m0 0h20v20l-2-3-5-8-6-5-7-3z"/>
<path transform="translate(1142,395)" d="m0 0h12l3 1-2 7-4 3-11-1 1-9z" fill="#214067"/>
<path transform="translate(0)" d="m0 0h20l-3 2-8 5h-2l-2 4-4 9h-1z"/>
<path transform="translate(1060,255)" d="m0 0 9 5 2 5v8l2 6 3 1-4 1-5-3-3-7-2-14h-2z" fill="#3E648B"/>
<path transform="translate(237,315)" d="m0 0 2 1v25l-2 4-2-2-2-17-1-6 5-2z" fill="#3E648B"/>
<path transform="translate(960,491)" d="m0 0h4l1 4 5 1v6l-4 3h-29v-1l23-2h5v-2l-6-1-2-7z" fill="#35658B"/>
<path transform="translate(937,523)" d="m0 0h11l11 1-3 2h-2l-1 3-4 2h-9l-5-5z" fill="#163258"/>
<path transform="translate(85,382)" d="m0 0h5v4l-7 1-8-2 1 3-7 1-1 1-13 1v-4l12-2v-1z" fill="#173E67"/>
<path transform="translate(637,291)" d="m0 0h6l2 5-2 9-1 2h-4l-4-11 1-4z" fill="#3E648B"/>
<path transform="translate(867,361)" d="m0 0 6 2 5 2 3 5-1 3-5-3h-3l-1 3-6-4-3-4z" fill="#3C6289"/>
<path transform="translate(691,151)" d="m0 0 4 2 6 6v2h-2v2l-3 2v3l-2-1v-2h-5v-11z" fill="#27668B"/>
<path transform="translate(61,490)" d="m0 0 1 3h2l2 5v3h2l2-4 1 15 2 4-4-1-2-4-3-1-2-6z" fill="#17416B"/>
<path transform="translate(85,574)" d="m0 0 44 2 7 1v2l-34-1-16-1z" fill="#406A90"/>
<path transform="translate(845,395)" d="m0 0 2 1-10 7-17 10-6 1 1-4 18-9h3v-2l6-2z" fill="#163359"/>
<path transform="translate(1083,264)" d="m0 0 6 2 7 8 3 5-7 1-5-5-4-7z" fill="#3E648B"/>
<path transform="translate(361,557)" d="m0 0h5l2 3 2 1 1 4-1 2-5 1-7-1-1 2 2-9z" fill="#18355B"/>
<path transform="translate(255,363)" d="m0 0h12l39 5 4 2h-12l-38-5-5-1z" fill="#3E658C"/>
<path transform="translate(621,363)" d="m0 0 11 1v1h-5l-1 26-2 1v-17l-1 9h-1z" fill="#163258"/>
<path transform="translate(433,383)" d="m0 0 9 1v2h-2l1 7-3 4-4-1-1-1z" fill="#173359"/>
<path transform="translate(941,326)" d="m0 0 5 2v9h-8l-2-4 1-5z" fill="#163258"/>
<path transform="translate(459,375)" d="m0 0h17l7 1 2 3-2 2-7-1-16-2z" fill="#3E668C"/>
<path transform="translate(566,265)" d="m0 0h9l2 2-4 1 3 4h-7l-9-2-3-2 1-2z" fill="#174069"/>
<path transform="translate(1046,554)" d="m0 0h2l1 4-10 6h-7l-3-3z" fill="#163258"/>
<path transform="translate(52,186)" d="m0 0 1 4-1 2 4 2-11 1v2h-2l4 6-6 1-5-2 2-4h2l1-3 9-5z" fill="#447399"/>
<path transform="translate(420,364)" d="m0 0 21 1 25 3 3 1v2l-12-1-37-5z" fill="#3E648B"/>
<path transform="translate(277,297)" d="m0 0 13 1v7l-5-1-2-1v-2h-2v2l-4 1z" fill="#3A6087"/>
<path transform="translate(933,489)" d="m0 0 4 2 5-2 1 1v5h-9l-3 2-3-2v2l-5 3v-3l6-5z" fill="#3A658C"/>
<path transform="translate(1367,544)" d="m0 0 3 3 7 15 2 12-2-2-3-10v-3l-4-2-3-5-1-7z" fill="#3E648B"/>
<path transform="translate(274,504)" d="m0 0h1v7l5-2 8-2 5-3v7l-4 2-14-1-1 2z" fill="#27678C"/>
<path transform="translate(916,521)" d="m0 0h1v6l-4 7-7-5 3-5z" fill="#0E486B"/>
<path transform="translate(363,508)" d="m0 0 3 1 2 20-3 2-3-1z" fill="#193F68"/>
<path transform="translate(109,486)" d="m0 0 3 3 5 16 1 8 2 2h-16v-1l8-1h4l-4-15-1-3h-2z" fill="#3E658C"/>
<path transform="translate(290,326)" d="m0 0h18l1 3 7-1 8 3v1l-16-1-1-2-17-1z" fill="#3E648B"/>
<path transform="translate(276,215)" d="m0 0 9 1 2 1-2 7-2 1-5-2z" fill="#163258"/>
<path transform="translate(307,528)" d="m0 0h2l1 4-1 3h-2l1 3-2 7-4-1v-7l2-5 2-1z" fill="#173D66"/>
<path transform="translate(689,550)" d="m0 0h4v3l9-1 1 5-4 2-8 1 2-4h-2v-3l-2-1z" fill="#1C456F"/>
<path transform="translate(249,558)" d="m0 0 4 5v2h2l2 10-5-5-8-7z" fill="#163258"/>
<path transform="translate(80,557)" d="m0 0 16 2 26 1v1h-42z" fill="#437298"/>
<path transform="translate(940,486)" d="m0 0h8l3 1 5 1-4 2h-11l-4 2-4-1 4-4z" fill="#437096"/>
<path transform="translate(1227,269)" d="m0 0 1 3-7 7h-3v2l-5 3h-2l2-4 4-5 5-1v-2z" fill="#163258"/>
<path transform="translate(1084,238)" d="m0 0h4l3 7v7l-4-2-3-6z" fill="#3E648B"/>
<path transform="translate(740)" d="m0 0h19l-1 4-7 1-11-4z" fill="#3E648B"/>
<path transform="translate(55,463)" d="m0 0 2 4v15l-5-2 1-12z" fill="#18426C"/>
<path transform="translate(1167,274)" d="m0 0 3 1 1 11-1 2-4 1-1-2v-9z" fill="#256489"/>
<path transform="translate(658,88)" d="m0 0 3 1 2 4-1 7-3 2-2-2v-9z" fill="#27678C"/>
<path transform="translate(953,483)" d="m0 0h23v1l-18 1v2l-7 1-8-2 4-2z" fill="#3C648B"/>
<path transform="translate(408,194)" d="m0 0 11 1 8 4 1 2-9-1-11-3z" fill="#16335A"/>
<path transform="translate(305,507)" d="m0 0h2l3 12-2 8-2-1-1-5z" fill="#173F69"/>
<path transform="translate(92,383)" d="m0 0h2l-2 4-2 3v2h-2v-2l-4 2-4-1 1-4-6-1 3-1 10 2 1-3 3 1z" fill="#3F678E"/>
<path transform="translate(827,366)" d="m0 0 3 2v2l5 2 7 4v2l-6-1-4-1h-2l-1-4-2 3z" fill="#163258"/>
<path transform="translate(1186,256)" d="m0 0 3 1-9 14-2-2 2-5 3-7z" fill="#163258"/>
<path transform="translate(76,527)" d="m0 0h13l-4 2-1 2h-2l2 4v5l-1-3-3-1-2-6h-3z" fill="#18426C"/>
<path transform="translate(1133,394)" d="m0 0 4 2h3l-1 8h-4l-6-1v-2l4 1z" fill="#18365D"/>
<path transform="translate(932,505)" d="m0 0 8 1-4 2-9 3-4 3h-2v-5l5-1z" fill="#3C658B"/>
<path transform="translate(461,384)" d="m0 0h14l15 2 2 2h-10l-9-1-2-1h-9z" fill="#426F95"/>
<path transform="translate(352,303)" d="m0 0 6 3-1 5-2 2h-3v-2h-4v-5h2l1 3 1-4z" fill="#3E648B"/>
<path transform="translate(784,350)" d="m0 0h4 5v5 3l-7-1v-3l-3-3z" fill="#3E648B"/>
<path transform="translate(916,506)" d="m0 0 3 1h-2l-2 7 2 1-3 3h-4l-1 2 1-6z" fill="#3D688F"/>
<path transform="translate(1215,285)" d="m0 0h2l-2 5-3 3-4 1-3-3 2-3h6v-2z" fill="#163258"/>
<path transform="translate(984,555)" d="m0 0h5v6h-2v2h-4l-1 2-1-5 2-4z" fill="#2F658B"/>
<path transform="translate(56,492)" d="m0 0 2 1v5h3v6l-2-1v-2l-1 2-4-2-1-4 1-3h2z" fill="#1A446D"/>
<path transform="translate(924,300)" d="m0 0 5 1-1 6-2 1-5-3-1-3z" fill="#163258"/>
<path transform="translate(263,296)" d="m0 0h9l2 1v4l-4 1-7-3z" fill="#3E648B"/>
<path transform="translate(825,405)" d="m0 0 1 4-6 4-6 1 1-4z" fill="#163961"/>
<path transform="translate(85,382)" d="m0 0h5v4l-7 1-5-1-3-3z" fill="#16345B"/>
<path transform="translate(1080,263)" d="m0 0h1v7l-5 1-1 2-3-1v-6l7 1z" fill="#3E648B"/>
<path transform="translate(977,554)" d="m0 0h1v8l-2 4-7-1v-6l6 2z" fill="#2D668B"/>
<path transform="translate(54,392)" d="m0 0h19l-4 3h-10l-5-2z" fill="#17416B"/>
<path transform="translate(155,388)" d="m0 0h1v9l-6 1-1-1v-5h6z" fill="#18426C"/>
<path transform="translate(454,390)" d="m0 0 5 1v6h-2l-1-2-1 2h-4l1-6z" fill="#17345A"/>
<path transform="translate(343,522)" d="m0 0h3 7l3 2 1 4h-2l-1-4-6 2-5 1z" fill="#07576D"/>
<path transform="translate(266,585)" d="m0 0h4l1 5-1 3h-4l-1-7z" fill="#437298"/>
<path transform="translate(940,573)" d="m0 0 5 1v3l4 1v1h-7l-5-1z" fill="#447399"/>
<path transform="translate(1172,268)" d="m0 0 2 1 1 10-4 5v-9z" fill="#0F4569"/>
<path transform="translate(74,578)" d="m0 0h1v15l-4-1 2-13z" fill="#174069"/>
<path transform="translate(85,574)" d="m0 0 23 1v1l-12 1h-10z" fill="#3F678E"/>
<path transform="translate(970,487)" d="m0 0h7l5 3-1 2-1-1h-10l-2-1v-2z" fill="#3E648B"/>
<path transform="translate(840,400)" d="m0 0m-1 1 2 2-9 6-5 1v-2z" fill="#3E668D"/>
<path transform="translate(702,61)" d="m0 0 3 1-1 11h-3v-11z" fill="#07596E"/>
<path transform="translate(692,339)" d="m0 0 4 2 2 5h-8v-5z" fill="#3E648B"/>
<path transform="translate(1083,569)" d="m0 0 5 2v4h-6l-1-4z" fill="#163258"/>
<path transform="translate(306,284)" d="m0 0h1l1 6v14h-2l-1-7z" fill="#3E648B"/>
<path transform="translate(1177,252)" d="m0 0 1 2-3 10-3 4-1-7z" fill="#3E648B"/>
<path transform="translate(1121,423)" d="m0 0 1 3-2 8-4 1-3-1 5-5z" fill="#17406A"/>
<path transform="translate(433,158)" d="m0 0 7 1 2 5-9-2z" fill="#3E648B"/>
<path transform="translate(727,119)" d="m0 0 2 2v10h-3l-1-7z" fill="#163258"/>
<path transform="translate(683,540)" d="m0 0h20l-2 2-14 1-4-2z" fill="#3E648B"/>
<path transform="translate(935,534)" d="m0 0h15v1l-6 2-5 3-2-4z" fill="#07596E"/>
<path transform="translate(299,525)" d="m0 0 6 2-1 4-1-2-5-1 1 3-2 3-1-5v-2z" fill="#437298"/>
<path transform="translate(459,375)" d="m0 0h14v2l-5 1h-8z" fill="#406B91"/>
<path transform="translate(933,489)" d="m0 0 2 2h-2v2h-2v2h-3v2l-5 3v-3l6-5z" fill="#3F668D"/>
<path transform="translate(170,553)" d="m0 0h12l1 3-1 3-3-1h2v-3h-11z" fill="#416C92"/>
<path transform="translate(98,509)" d="m0 0h5v5l-5 1-1-5z" fill="#3F688F"/>
<path transform="translate(1073,254)" d="m0 0h6l-3 1v2l4-1v2h2l-1 3-6-1z" fill="#3E648B"/>
<path transform="translate(105,455)" d="m0 0h3v2h2l3 5 2 2h-5l-5-7z" fill="#18426C"/>
<path transform="translate(62,430)" d="m0 0 4 1 2 9-2 2-2-8h-2v-2l-3-1z" fill="#3E648B"/>
<path transform="translate(1147,395)" d="m0 0h7l3 1-2 4v-3l-6 1v4h-2l-1-6z" fill="#163258"/>
<path transform="translate(952,489)" d="m0 0 5 1v3h-3l-7 1v-3h2z" fill="#3C648B"/>
<path transform="translate(61,432)" d="m0 0 1 2 3-1 1 9-4-1z" fill="#163258"/>
<path transform="translate(461,391)" d="m0 0h4l1 6-5 1z" fill="#18355B"/>
<path transform="translate(188,578)" d="m0 0h1v8l-4 3v-6z" fill="#18426C"/>
<path transform="translate(960,491)" d="m0 0h4l2 5h-7v-2h-2v-2z" fill="#2A668B"/>
<path transform="translate(943,489)" d="m0 0h6v2l4 1-4 1-4-1-1 4h-5l4-1z" fill="#2E668B"/>
<path transform="translate(940,310)" d="m0 0 5 2-1 5h-4l-1-4z" fill="#163258"/>
<path transform="translate(1222,302)" d="m0 0 1 3-3 10h-2l1-8z" fill="#3E648B"/>
<path transform="translate(1170,263)" d="m0 0 3 1-1 8-4 1z" fill="#27668B"/>
<path transform="translate(730,161)" d="m0 0h1v15l-2-1-1-10z" fill="#105A73"/>
<path transform="translate(1183,318)" d="m0 0 3 2-3 9-3 4 2-12z" fill="#163258"/>
<path transform="translate(1046,244)" d="m0 0 4 2 8-1-1 2h-5l1 4-7-5z" fill="#3E658C"/>
<path transform="translate(730,576)" d="m0 0 4 1 2 7-4-1z" fill="#3E648B"/>
<path transform="translate(928,499)" d="m0 0 2 1-5 10-3 1 1-5z" fill="#2F648A"/>
<path transform="translate(242,233)" d="m0 0h12l-4 2-5 1-11-1v-1z" fill="#447399"/>
</svg>
