<svg width="18" height="14" viewBox="0 0 18 14" fill="none" xmlns="http://www.w3.org/2000/svg">
<g id="Group 1852">
<path id="path465" d="M1.44473 2.93925C1.16738 2.75026 1.00098 2.43227 1.00098 2.09166V2.09081C1.00098 1.48867 1.47832 1.00052 2.06714 1.00052H15.9348C16.5236 1.00052 17.001 1.48867 17.001 2.09081V2.09136V2.09166C17.001 2.43227 16.8346 2.75026 16.5573 2.93925C15.2039 3.86214 11.126 6.64221 9.59271 7.68782C9.23434 7.93218 8.76765 7.93218 8.40927 7.68782C6.87592 6.64221 2.79806 3.86214 1.44473 2.93925Z" stroke="#D1DCF1" stroke-miterlimit="10" stroke-linecap="round" stroke-linejoin="round"/>
<path id="path469" d="M1.00098 2.09128V11.9091C1.00098 12.1985 1.11324 12.4758 1.31351 12.6804C1.51351 12.8852 1.78471 13 2.06764 13H15.9343C16.2172 13 16.4884 12.8852 16.6884 12.6804C16.8887 12.4758 17.001 12.1985 17.001 11.9091V2.09128" stroke="#D1DCF1" stroke-miterlimit="10" stroke-linecap="round" stroke-linejoin="round"/>
</g>
</svg>
