<svg width="25" height="25" viewBox="0 0 25 25" fill="none" xmlns="http://www.w3.org/2000/svg">
<g id="instagram (4) 1" clip-path="url(#clip0_680_90)">
<g id="Group">
<g id="Group_2">
<path id="Vector" d="M18.7495 0H6.24985C2.81274 0 0 2.81274 0 6.24985V18.7502C0 22.1863 2.81274 25 6.24985 25H18.7495C22.1867 25 24.9994 22.1863 24.9994 18.7502V6.24985C24.9994 2.81274 22.1867 0 18.7495 0ZM22.916 18.7502C22.916 21.047 21.0476 22.9166 18.7495 22.9166H6.24985C3.95272 22.9166 2.08338 21.047 2.08338 18.7502V6.24985C2.08338 3.95242 3.95272 2.08338 6.24985 2.08338H18.7495C21.0476 2.08338 22.916 3.95242 22.916 6.24985V18.7502Z" fill="white"/>
</g>
</g>
<g id="Group_3">
<g id="Group_4">
<path id="Vector_2" d="M19.2714 7.29094C20.1344 7.29094 20.8339 6.5914 20.8339 5.72848C20.8339 4.86555 20.1344 4.16602 19.2714 4.16602C18.4085 4.16602 17.709 4.86555 17.709 5.72848C17.709 6.5914 18.4085 7.29094 19.2714 7.29094Z" fill="white"/>
</g>
</g>
<g id="Group_5">
<g id="Group_6">
<path id="Vector_3" d="M12.4998 6.25C9.04742 6.25 6.25 9.04772 6.25 12.4998C6.25 15.9507 9.04742 18.7503 12.4998 18.7503C15.9513 18.7503 18.7497 15.9507 18.7497 12.4998C18.7497 9.04772 15.9513 6.25 12.4998 6.25ZM12.4998 16.6669C10.1989 16.6669 8.33338 14.8014 8.33338 12.4998C8.33338 10.1983 10.1989 8.33338 12.4998 8.33338C14.8008 8.33338 16.6663 10.1983 16.6663 12.4998C16.6663 14.8014 14.8008 16.6669 12.4998 16.6669Z" fill="white"/>
</g>
</g>
</g>
<defs>
<clipPath id="clip0_680_90">
<rect width="25" height="25" fill="white"/>
</clipPath>
</defs>
</svg>
